# xmcd
#
# Track frame offsets: 
#        150
#        12787
#        31199
#        53501
#        69448
#        85082
#        98792
#        114176
#        131375
#        150279
#        166979
#        181364
#        198461
#        215201
#        234338
#        254132
#        269436
#        285224
#        307151
#
# Disc length: 4361 seconds
#
# Revision: 0
# Processed by: cddbd v1.5.2PL0 Copyright (c) Steve Scherf et al.
# Submitted via: ExactAudioCopy v0.95b4
#
DISCID=f9110713
DTITLE=Various Artist - Siempre Te Amare Vol.16
DYEAR=2000
DGENRE=Ballad
TTITLE0=Los Angeles Negros - Como quisiera decirte
TTITLE1=Raphael - No puedo arrancarte de mi
TTITLE2=Julio Iglesias - Me olvidé de vivir
TTITLE3=Miguel Gallardo - Otro ocupa mi lugar
TTITLE4=Manolo Otero - Vuelvo a ti
TTITLE5=Los Pasteles Verdes - Recuerdos de una noche
TTITLE6=Los Iracundos - Deten la noche
TTITLE7=Leonardo Favio - Ella, ella ya me olvidó
TTITLE8=Dyango - Olvídame
TTITLE9=José Luis Perales - Si...
TTITLE10=Yaco Monti - Siempre te recordaré
TTITLE11=Miguel Bosé - Linda
TTITLE12=Braulio - La mas bella herejía
TTITLE13=Nino Bravo - Libre
TTITLE14=José Vélez - Vino Griego
TTITLE15=Adamo - La noche
TTITLE16=Juan Bau - Fantasía
TTITLE17=José Augusto - Mujer
TTITLE18=Basilio - Ve con el
EXTD=
EXTT0=
EXTT1=
EXTT2=
EXTT3=
EXTT4=
EXTT5=
EXTT6=
EXTT7=
EXTT8=
EXTT9=
EXTT10=
EXTT11=
EXTT12=
EXTT13=
EXTT14=
EXTT15=
EXTT16=
EXTT17=
EXTT18=
PLAYORDER=
